<?xml version="1.0" encoding="UTF-8" standalone="no"?>
<!-- Created with Inkscape (http://www.inkscape.org/) -->

<svg
   xmlns:dc="http://purl.org/dc/elements/1.1/"
   xmlns:cc="http://creativecommons.org/ns#"
   xmlns:rdf="http://www.w3.org/1999/02/22-rdf-syntax-ns#"
   xmlns:svg="http://www.w3.org/2000/svg"
   xmlns="http://www.w3.org/2000/svg"
   xmlns:sodipodi="http://sodipodi.sourceforge.net/DTD/sodipodi-0.dtd"
   xmlns:inkscape="http://www.inkscape.org/namespaces/inkscape"
   width="512"
   height="512"
   viewBox="0 0 511.99999 511.99999"
   id="svg2"
   version="1.1"
   inkscape:version="0.91 r13725"
   sodipodi:docname="Zeichnung.svg">
  <defs
     id="defs4">
    <filter
       inkscape:collect="always"
       style="color-interpolation-filters:sRGB"
       id="filter4505"
       x="-0.11143675"
       width="1.2228735"
       y="-0.11143675"
       height="1.2228735">
      <feGaussianBlur
         inkscape:collect="always"
         stdDeviation="2.228735"
         id="feGaussianBlur4507" />
    </filter>
    <filter
       inkscape:collect="always"
       style="color-interpolation-filters:sRGB"
       id="filter4509"
       x="-0.094232194"
       width="1.1884644"
       y="-0.031126889"
       height="1.0622538">
      <feGaussianBlur
         inkscape:collect="always"
         stdDeviation="2.228735"
         id="feGaussianBlur4511" />
    </filter>
    <filter
       inkscape:collect="always"
       style="color-interpolation-filters:sRGB"
       id="filter4513"
       x="-0.05169936"
       width="1.1033987"
       y="-0.016033339"
       height="1.0320667">
      <feGaussianBlur
         inkscape:collect="always"
         stdDeviation="2.228735"
         id="feGaussianBlur4515" />
    </filter>
    <filter
       inkscape:collect="always"
       style="color-interpolation-filters:sRGB"
       id="filter4517"
       x="-0.066767517"
       width="1.133535"
       y="-0.021164691"
       height="1.0423294">
      <feGaussianBlur
         inkscape:collect="always"
         stdDeviation="2.228735"
         id="feGaussianBlur4519" />
    </filter>
    <filter
       inkscape:collect="always"
       style="color-interpolation-filters:sRGB"
       id="filter4521"
       x="-0.042180108"
       width="1.0843602"
       y="-0.012904561"
       height="1.0258091">
      <feGaussianBlur
         inkscape:collect="always"
         stdDeviation="2.228735"
         id="feGaussianBlur4523" />
    </filter>
    <filter
       inkscape:collect="always"
       style="color-interpolation-filters:sRGB"
       id="filter4525"
       x="-0.094232194"
       width="1.1884644"
       y="-0.031126904"
       height="1.0622538">
      <feGaussianBlur
         inkscape:collect="always"
         stdDeviation="2.228735"
         id="feGaussianBlur4527" />
    </filter>
    <filter
       inkscape:collect="always"
       style="color-interpolation-filters:sRGB"
       id="filter4529"
       x="-0.051699355"
       width="1.1033987"
       y="-0.016033339"
       height="1.0320667">
      <feGaussianBlur
         inkscape:collect="always"
         stdDeviation="2.228735"
         id="feGaussianBlur4531" />
    </filter>
    <filter
       inkscape:collect="always"
       style="color-interpolation-filters:sRGB"
       id="filter4533"
       x="-0.066765892"
       width="1.1335318"
       y="-0.021164691"
       height="1.0423294">
      <feGaussianBlur
         inkscape:collect="always"
         stdDeviation="2.228735"
         id="feGaussianBlur4535" />
    </filter>
    <filter
       inkscape:collect="always"
       style="color-interpolation-filters:sRGB"
       id="filter4537"
       x="-0.042180107"
       width="1.0843602"
       y="-0.012904561"
       height="1.0258091">
      <feGaussianBlur
         inkscape:collect="always"
         stdDeviation="2.228735"
         id="feGaussianBlur4539" />
    </filter>
  </defs>
  <sodipodi:namedview
     id="base"
     pagecolor="#ffffff"
     bordercolor="#666666"
     borderopacity="1.0"
     inkscape:pageopacity="0.0"
     inkscape:pageshadow="2"
     inkscape:zoom="1.2109375"
     inkscape:cx="277.68153"
     inkscape:cy="279.81512"
     inkscape:document-units="px"
     inkscape:current-layer="layer2"
     showgrid="true"
     units="px"
     inkscape:snap-bbox="true"
     inkscape:bbox-nodes="true"
     inkscape:snap-global="false"
     inkscape:snap-bbox-midpoints="true"
     inkscape:snap-bbox-edge-midpoints="true"
     inkscape:bbox-paths="true"
     inkscape:object-paths="true"
     inkscape:snap-intersection-paths="true"
     inkscape:object-nodes="true"
     inkscape:snap-smooth-nodes="true"
     inkscape:snap-midpoints="true"
     inkscape:snap-center="true"
     inkscape:window-width="1366"
     inkscape:window-height="741"
     inkscape:window-x="0"
     inkscape:window-y="27"
     inkscape:window-maximized="1">
    <inkscape:grid
       type="xygrid"
       id="grid4138"
       spacingx="3.9999999"
       spacingy="3.9999999"
       empspacing="16" />
  </sodipodi:namedview>
  <metadata
     id="metadata7">
    <rdf:RDF>
      <cc:Work
         rdf:about="">
        <dc:format>image/svg+xml</dc:format>
        <dc:type
           rdf:resource="http://purl.org/dc/dcmitype/StillImage" />
        <dc:title></dc:title>
      </cc:Work>
    </rdf:RDF>
  </metadata>
  <g
     inkscape:groupmode="layer"
     id="layer2"
     inkscape:label="Shadow">
    <path
       style="fill:#000000;fill-opacity:1;stroke:none;stroke-width:1;stroke-miterlimit:4;stroke-dasharray:none;filter:url(#filter4505)"
       d="m 229.92773,230.00195 c -16.94382,-0.5865 -30.51089,18.08144 -24.63616,33.99792 4.62388,16.62026 27.18878,23.66792 40.46566,12.65838 13.99895,-9.826 13.33504,-33.11586 -1.16153,-42.17192 -4.30637,-2.91445 -9.46842,-4.49185 -14.66797,-4.48438 z"
       id="path4140-4"
       inkscape:connector-curvature="0" />
    <path
       style="color:#000000;font-style:normal;font-variant:normal;font-weight:normal;font-stretch:normal;font-size:medium;line-height:normal;font-family:sans-serif;text-indent:0;text-align:start;text-decoration:none;text-decoration-line:none;text-decoration-style:solid;text-decoration-color:#000000;letter-spacing:normal;word-spacing:normal;text-transform:none;direction:ltr;block-progression:tb;writing-mode:lr-tb;baseline-shift:baseline;text-anchor:start;white-space:normal;clip-rule:nonzero;display:inline;overflow:visible;visibility:visible;opacity:1;isolation:auto;mix-blend-mode:normal;color-interpolation:sRGB;color-interpolation-filters:linearRGB;solid-color:#000000;solid-opacity:1;fill:#000000;fill-opacity:1;fill-rule:nonzero;stroke:none;stroke-width:10;stroke-linecap:round;stroke-linejoin:miter;stroke-miterlimit:4;stroke-dasharray:none;stroke-dashoffset:0;stroke-opacity:1;filter:url(#filter4509);color-rendering:auto;image-rendering:auto;shape-rendering:auto;text-rendering:auto;enable-background:accumulate"
       d="m 255.58594,168.08203 c -7.00597,-0.58006 -9.92362,9.98486 -3.61914,13.08789 29.43514,16.39094 47.40324,52.09884 42.504,85.87108 -3.1281,26.88114 -20.42345,51.65092 -43.68369,64.63088 -5.68099,4.44698 -0.22999,14.3795 6.57227,11.97265 35.76006,-18.70473 56.75469,-61.12185 50.93554,-100.95703 -4.04517,-30.97626 -23.41877,-60.13301 -51.33008,-74.43555 -0.45241,-0.0963 -0.91589,-0.16586 -1.3789,-0.16992 z"
       id="path4142-7"
       inkscape:connector-curvature="0" />
    <path
       style="color:#000000;font-style:normal;font-variant:normal;font-weight:normal;font-stretch:normal;font-size:medium;line-height:normal;font-family:sans-serif;text-indent:0;text-align:start;text-decoration:none;text-decoration-line:none;text-decoration-style:solid;text-decoration-color:#000000;letter-spacing:normal;word-spacing:normal;text-transform:none;direction:ltr;block-progression:tb;writing-mode:lr-tb;baseline-shift:baseline;text-anchor:start;white-space:normal;clip-rule:nonzero;display:inline;overflow:visible;visibility:visible;opacity:1;isolation:auto;mix-blend-mode:normal;color-interpolation:sRGB;color-interpolation-filters:linearRGB;solid-color:#000000;solid-opacity:1;fill:#000000;fill-opacity:1;fill-rule:nonzero;stroke:none;stroke-width:10;stroke-linecap:round;stroke-linejoin:miter;stroke-miterlimit:4;stroke-dasharray:none;stroke-dashoffset:0;stroke-opacity:1;filter:url(#filter4513);color-rendering:auto;image-rendering:auto;shape-rendering:auto;text-rendering:auto;enable-background:accumulate"
       d="m 339.0957,87.197266 c -6.99927,-0.572919 -9.91567,9.981335 -3.61718,13.083984 51.82535,29.34824 86.89114,86.30993 89.63206,145.75051 3.99543,61.84808 -26.94725,124.37637 -78.64188,158.79812 -4.4829,4.46863 -13.68074,5.3187 -14.5312,12.64473 -0.55356,6.3747 7.89928,9.66385 12.29188,5.33498 54.95194,-31.91737 91.7644,-92.43757 94.848,-155.90971 4.0455,-63.11938 -25.43374,-127.07905 -76.01901,-165.03693 -7.46522,-5.198424 -14.73967,-11.370422 -23.26931,-14.614903 -0.23392,0.04576 -0.46078,-0.07328 -0.69336,-0.05078 z"
       id="path4142-5-9"
       inkscape:connector-curvature="0" />
    <path
       style="color:#000000;font-style:normal;font-variant:normal;font-weight:normal;font-stretch:normal;font-size:medium;line-height:normal;font-family:sans-serif;text-indent:0;text-align:start;text-decoration:none;text-decoration-line:none;text-decoration-style:solid;text-decoration-color:#000000;letter-spacing:normal;word-spacing:normal;text-transform:none;direction:ltr;block-progression:tb;writing-mode:lr-tb;baseline-shift:baseline;text-anchor:start;white-space:normal;clip-rule:nonzero;display:inline;overflow:visible;visibility:visible;opacity:1;isolation:auto;mix-blend-mode:normal;color-interpolation:sRGB;color-interpolation-filters:linearRGB;solid-color:#000000;solid-opacity:1;fill:#000000;fill-opacity:1;fill-rule:nonzero;stroke:none;stroke-width:10;stroke-linecap:round;stroke-linejoin:miter;stroke-miterlimit:4;stroke-dasharray:none;stroke-dashoffset:0;stroke-opacity:1;filter:url(#filter4517);color-rendering:auto;image-rendering:auto;shape-rendering:auto;text-rendering:auto;enable-background:accumulate"
       d="m 297.3418,127.63867 c -7.00429,-0.58036 -9.92401,9.98257 -3.6211,13.08594 42.65892,24.02983 69.35323,73.09673 66.39844,121.95312 -1.86991,44.60281 -28.07913,87.14996 -67.0293,109.00391 -6.09732,3.85509 -1.66258,14.28275 5.34375,12.56641 14.09332,-6.76202 26.27586,-17.34477 37.00441,-28.65656 35.2572,-37.63361 47.99032,-94.47558 32.12303,-143.54729 -11.0636,-35.37932 -35.93441,-66.75589 -68.73681,-84.21608 -0.48735,-0.10112 -0.98326,-0.18741 -1.48242,-0.18945 z"
       id="path4142-5-7-0"
       inkscape:connector-curvature="0" />
    <path
       style="color:#000000;font-style:normal;font-variant:normal;font-weight:normal;font-stretch:normal;font-size:medium;line-height:normal;font-family:sans-serif;text-indent:0;text-align:start;text-decoration:none;text-decoration-line:none;text-decoration-style:solid;text-decoration-color:#000000;letter-spacing:normal;word-spacing:normal;text-transform:none;direction:ltr;block-progression:tb;writing-mode:lr-tb;baseline-shift:baseline;text-anchor:start;white-space:normal;clip-rule:nonzero;display:inline;overflow:visible;visibility:visible;opacity:1;isolation:auto;mix-blend-mode:normal;color-interpolation:sRGB;color-interpolation-filters:linearRGB;solid-color:#000000;solid-opacity:1;fill:#000000;fill-opacity:1;fill-rule:nonzero;stroke:none;stroke-width:10;stroke-linecap:round;stroke-linejoin:miter;stroke-miterlimit:4;stroke-dasharray:none;stroke-dashoffset:0;stroke-opacity:1;filter:url(#filter4521);color-rendering:auto;image-rendering:auto;shape-rendering:auto;text-rendering:auto;enable-background:accumulate"
       d="m 380.85156,46.753906 c -7.00415,-0.571972 -9.91466,9.987933 -3.61133,13.089844 60.1038,34.135071 102.57742,97.62107 111.26563,166.1582 9.65691,68.83026 -14.90846,141.54935 -64.71012,190.52441 -14.23306,14.49704 -31.02598,26.37622 -48.24496,36.96778 -5.20364,4.99393 1.21157,14.32464 7.73828,11.25391 65.01816,-36.4029 110.53715,-104.91347 119.34766,-178.86914 9.2676,-70.7123 -15.24217,-144.81657 -64.8105,-196.083843 -16.32199,-16.811324 -34.82887,-31.959353 -55.58794,-42.869286 -0.45425,-0.104886 -0.92073,-0.165716 -1.38672,-0.171875 z"
       id="path4142-8-6"
       inkscape:connector-curvature="0" />
    <path
       style="color:#000000;font-style:normal;font-variant:normal;font-weight:normal;font-stretch:normal;font-size:medium;line-height:normal;font-family:sans-serif;text-indent:0;text-align:start;text-decoration:none;text-decoration-line:none;text-decoration-style:solid;text-decoration-color:#000000;letter-spacing:normal;word-spacing:normal;text-transform:none;direction:ltr;block-progression:tb;writing-mode:lr-tb;baseline-shift:baseline;text-anchor:start;white-space:normal;clip-rule:nonzero;display:inline;overflow:visible;visibility:visible;opacity:1;isolation:auto;mix-blend-mode:normal;color-interpolation:sRGB;color-interpolation-filters:linearRGB;solid-color:#000000;solid-opacity:1;fill:#000000;fill-opacity:1;fill-rule:nonzero;stroke:none;stroke-width:10;stroke-linecap:round;stroke-linejoin:miter;stroke-miterlimit:4;stroke-dasharray:none;stroke-dashoffset:0;stroke-opacity:1;filter:url(#filter4525);color-rendering:auto;image-rendering:auto;shape-rendering:auto;text-rendering:auto;enable-background:accumulate"
       d="m 200.99414,168.08984 c -7.73379,2.22292 -13.92696,8.29192 -20.1173,13.25188 -29.56842,25.94374 -41.06147,70.05079 -27.88075,107.11922 7.98127,23.26078 24.70739,43.88883 46.61914,55.23633 6.86758,2.21171 12.03356,-7.8741 6.22657,-12.1543 -27.29269,-15.04586 -45.57399,-46.4027 -44.20278,-78.00553 0.44145,-29.92505 18.40302,-58.80278 44.20082,-73.07846 5.17514,-4.10573 1.75911,-12.86467 -4.8457,-12.36914 z"
       id="path4142-3-8"
       inkscape:connector-curvature="0" />
    <path
       style="color:#000000;font-style:normal;font-variant:normal;font-weight:normal;font-stretch:normal;font-size:medium;line-height:normal;font-family:sans-serif;text-indent:0;text-align:start;text-decoration:none;text-decoration-line:none;text-decoration-style:solid;text-decoration-color:#000000;letter-spacing:normal;word-spacing:normal;text-transform:none;direction:ltr;block-progression:tb;writing-mode:lr-tb;baseline-shift:baseline;text-anchor:start;white-space:normal;clip-rule:nonzero;display:inline;overflow:visible;visibility:visible;opacity:1;isolation:auto;mix-blend-mode:normal;color-interpolation:sRGB;color-interpolation-filters:linearRGB;solid-color:#000000;solid-opacity:1;fill:#000000;fill-opacity:1;fill-rule:nonzero;stroke:none;stroke-width:10;stroke-linecap:round;stroke-linejoin:miter;stroke-miterlimit:4;stroke-dasharray:none;stroke-dashoffset:0;stroke-opacity:1;filter:url(#filter4529);color-rendering:auto;image-rendering:auto;shape-rendering:auto;text-rendering:auto;enable-background:accumulate"
       d="m 164.96875,87.205078 c -7.55187,2.120087 -13.67904,7.918204 -20.26422,12.049279 -51.3528,36.755013 -82.245443,99.898983 -79.733023,163.002513 1.569029,63.18356 36.524633,124.25935 90.221833,157.59871 4.22177,2.95476 10.84848,7.79666 15.38674,2.58387 3.98317,-4.21959 0.57458,-10.87961 -4.39063,-12.24804 C 112.98188,378.87868 78.63856,318.56848 78.877449,256.99031 77.965814,195.417 111.62346,134.74877 164.48046,102.85197 c 4.64018,-1.65498 10.11962,-6.672582 6.96681,-12.060954 -1.25811,-2.298068 -3.86092,-3.749554 -6.47852,-3.585938 z"
       id="path4142-5-3-7"
       inkscape:connector-curvature="0" />
    <path
       style="color:#000000;font-style:normal;font-variant:normal;font-weight:normal;font-stretch:normal;font-size:medium;line-height:normal;font-family:sans-serif;text-indent:0;text-align:start;text-decoration:none;text-decoration-line:none;text-decoration-style:solid;text-decoration-color:#000000;letter-spacing:normal;word-spacing:normal;text-transform:none;direction:ltr;block-progression:tb;writing-mode:lr-tb;baseline-shift:baseline;text-anchor:start;white-space:normal;clip-rule:nonzero;display:inline;overflow:visible;visibility:visible;opacity:1;isolation:auto;mix-blend-mode:normal;color-interpolation:sRGB;color-interpolation-filters:linearRGB;solid-color:#000000;solid-opacity:1;fill:#000000;fill-opacity:1;fill-rule:nonzero;stroke:none;stroke-width:10;stroke-linecap:round;stroke-linejoin:miter;stroke-miterlimit:4;stroke-dasharray:none;stroke-dashoffset:0;stroke-opacity:1;filter:url(#filter4533);color-rendering:auto;image-rendering:auto;shape-rendering:auto;text-rendering:auto;enable-background:accumulate"
       d="m 182.97656,127.64648 c -7.6062,2.16799 -13.75783,8.03474 -20.2151,12.45243 -41.19651,31.58024 -63.006417,86.09605 -54.9508,137.37757 6.35662,44.33921 34.20473,85.48709 73.78895,106.66414 6.86757,2.21172 12.03356,-7.87409 6.22656,-12.15429 -39.20775,-22.0577 -65.55153,-64.46332 -67.42773,-109.3418 -2.9133,-49.15833 23.88328,-98.09632 66.86718,-122.21094 5.8452,-3.8289 2.71535,-13.24569 -4.28906,-12.78711 z"
       id="path4142-5-7-3-4"
       inkscape:connector-curvature="0" />
    <path
       style="color:#000000;font-style:normal;font-variant:normal;font-weight:normal;font-stretch:normal;font-size:medium;line-height:normal;font-family:sans-serif;text-indent:0;text-align:start;text-decoration:none;text-decoration-line:none;text-decoration-style:solid;text-decoration-color:#000000;letter-spacing:normal;word-spacing:normal;text-transform:none;direction:ltr;block-progression:tb;writing-mode:lr-tb;baseline-shift:baseline;text-anchor:start;white-space:normal;clip-rule:nonzero;display:inline;overflow:visible;visibility:visible;opacity:1;isolation:auto;mix-blend-mode:normal;color-interpolation:sRGB;color-interpolation-filters:linearRGB;solid-color:#000000;solid-opacity:1;fill:#000000;fill-opacity:1;fill-rule:nonzero;stroke:none;stroke-width:10;stroke-linecap:round;stroke-linejoin:miter;stroke-miterlimit:4;stroke-dasharray:none;stroke-dashoffset:0;stroke-opacity:1;filter:url(#filter4537);color-rendering:auto;image-rendering:auto;shape-rendering:auto;text-rendering:auto;enable-background:accumulate"
       d="m 146.95312,46.761719 c -7.44754,2.091031 -13.51614,7.755383 -20.11328,11.6875 C 67.097485,99.401023 28.060668,168.66131 23.973994,240.97848 c -4.925097,71.73726 24.691129,144.76763 78.125616,192.86918 13.29732,11.88178 27.65858,22.90507 43.4668,31.17968 6.86757,2.21172 12.03355,-7.87409 6.22656,-12.15429 C 97.582263,422.06895 57.001104,367.89558 43.303348,306.94578 27.084849,238.66879 45.172548,163.32421 91.037109,109.75781 108.18525,89.179178 129.41212,72.310734 152.29883,58.660156 156.78021,54.26051 153.2382,46.337928 146.95312,46.761719 Z"
       id="path4142-8-3-1"
       inkscape:connector-curvature="0" />
  </g>
  <g
     inkscape:label="Ebene 1"
     inkscape:groupmode="layer"
     id="layer1"
     transform="translate(0,-540.36219)"
     style="display:inline"
     sodipodi:insensitive="true">
    <g
       id="g4279">
      <circle
         r="24"
         cy="796.36212"
         cx="230"
         id="path4140"
         style="fill:#ffffff;fill-opacity:1;stroke:none;stroke-width:1;stroke-miterlimit:4;stroke-dasharray:none" />
      <path
         style="color:#000000;font-style:normal;font-variant:normal;font-weight:normal;font-stretch:normal;font-size:medium;line-height:normal;font-family:sans-serif;text-indent:0;text-align:start;text-decoration:none;text-decoration-line:none;text-decoration-style:solid;text-decoration-color:#000000;letter-spacing:normal;word-spacing:normal;text-transform:none;direction:ltr;block-progression:tb;writing-mode:lr-tb;baseline-shift:baseline;text-anchor:start;white-space:normal;clip-rule:nonzero;display:inline;overflow:visible;visibility:visible;opacity:1;isolation:auto;mix-blend-mode:normal;color-interpolation:sRGB;color-interpolation-filters:linearRGB;solid-color:#000000;solid-opacity:1;fill:#ffffff;fill-opacity:1;fill-rule:nonzero;stroke:none;stroke-width:10;stroke-linecap:round;stroke-linejoin:miter;stroke-miterlimit:4;stroke-dasharray:none;stroke-dashoffset:0;stroke-opacity:1;color-rendering:auto;image-rendering:auto;shape-rendering:auto;text-rendering:auto;enable-background:accumulate"
         d="m 253.60938,710.44336 a 5.0005,5.0005 0 0 0 -2.62891,9.36328 c 27.35759,15.79492 44.19922,44.96486 44.19922,76.55469 0,31.58983 -16.84162,60.76172 -44.19922,76.55664 a 5.0005,5.0005 0 1 0 5,8.66015 c 30.43772,-17.57322 49.19922,-50.07034 49.19922,-85.21679 0,-35.14646 -18.7615,-67.64162 -49.19922,-85.21485 a 5.0005,5.0005 0 0 0 -2.37109,-0.70312 z"
         id="path4142"
         inkscape:connector-curvature="0" />
      <path
         style="color:#000000;font-style:normal;font-variant:normal;font-weight:normal;font-stretch:normal;font-size:medium;line-height:normal;font-family:sans-serif;text-indent:0;text-align:start;text-decoration:none;text-decoration-line:none;text-decoration-style:solid;text-decoration-color:#000000;letter-spacing:normal;word-spacing:normal;text-transform:none;direction:ltr;block-progression:tb;writing-mode:lr-tb;baseline-shift:baseline;text-anchor:start;white-space:normal;clip-rule:nonzero;display:inline;overflow:visible;visibility:visible;opacity:1;isolation:auto;mix-blend-mode:normal;color-interpolation:sRGB;color-interpolation-filters:linearRGB;solid-color:#000000;solid-opacity:1;fill:#ffffff;fill-opacity:1;fill-rule:nonzero;stroke:none;stroke-width:10;stroke-linecap:round;stroke-linejoin:miter;stroke-miterlimit:4;stroke-dasharray:none;stroke-dashoffset:0;stroke-opacity:1;color-rendering:auto;image-rendering:auto;shape-rendering:auto;text-rendering:auto;enable-background:accumulate"
         d="m 337.11914,629.55859 a 5.0005,5.0005 0 0 0 -2.62695,9.36329 c 56.25525,32.47898 90.89844,92.48147 90.89843,157.43945 0,64.95797 -34.64317,124.96242 -90.89843,157.4414 a 5.0005,5.0005 0 1 0 5,8.66016 c 59.33538,-34.2573 95.89843,-97.58696 95.89843,-166.10156 10e-6,-68.5146 -36.56305,-131.84231 -95.89843,-166.09961 a 5.0005,5.0005 0 0 0 -2.37305,-0.70313 z"
         id="path4142-5"
         inkscape:connector-curvature="0" />
      <path
         style="color:#000000;font-style:normal;font-variant:normal;font-weight:normal;font-stretch:normal;font-size:medium;line-height:normal;font-family:sans-serif;text-indent:0;text-align:start;text-decoration:none;text-decoration-line:none;text-decoration-style:solid;text-decoration-color:#000000;letter-spacing:normal;word-spacing:normal;text-transform:none;direction:ltr;block-progression:tb;writing-mode:lr-tb;baseline-shift:baseline;text-anchor:start;white-space:normal;clip-rule:nonzero;display:inline;overflow:visible;visibility:visible;opacity:1;isolation:auto;mix-blend-mode:normal;color-interpolation:sRGB;color-interpolation-filters:linearRGB;solid-color:#000000;solid-opacity:1;fill:#ffffff;fill-opacity:1;fill-rule:nonzero;stroke:none;stroke-width:10;stroke-linecap:round;stroke-linejoin:miter;stroke-miterlimit:4;stroke-dasharray:none;stroke-dashoffset:0;stroke-opacity:1;color-rendering:auto;image-rendering:auto;shape-rendering:auto;text-rendering:auto;enable-background:accumulate"
         d="m 295.36523,670.00195 a 5.0005,5.0005 0 0 0 -2.6289,9.36133 c 41.80642,24.13695 67.54883,68.72415 67.54883,116.99805 -1e-5,48.2739 -25.74241,92.86305 -67.54883,117 a 5.0005,5.0005 0 1 0 5,8.66015 c 44.88655,-25.91526 72.54882,-73.82963 72.54883,-125.66015 0,-51.83053 -27.66228,-99.74294 -72.54883,-125.65821 a 5.0005,5.0005 0 0 0 -2.3711,-0.70117 z"
         id="path4142-5-7"
         inkscape:connector-curvature="0" />
      <path
         style="color:#000000;font-style:normal;font-variant:normal;font-weight:normal;font-stretch:normal;font-size:medium;line-height:normal;font-family:sans-serif;text-indent:0;text-align:start;text-decoration:none;text-decoration-line:none;text-decoration-style:solid;text-decoration-color:#000000;letter-spacing:normal;word-spacing:normal;text-transform:none;direction:ltr;block-progression:tb;writing-mode:lr-tb;baseline-shift:baseline;text-anchor:start;white-space:normal;clip-rule:nonzero;display:inline;overflow:visible;visibility:visible;opacity:1;isolation:auto;mix-blend-mode:normal;color-interpolation:sRGB;color-interpolation-filters:linearRGB;solid-color:#000000;solid-opacity:1;fill:#ffffff;fill-opacity:1;fill-rule:nonzero;stroke:none;stroke-width:10;stroke-linecap:round;stroke-linejoin:miter;stroke-miterlimit:4;stroke-dasharray:none;stroke-dashoffset:0;stroke-opacity:1;color-rendering:auto;image-rendering:auto;shape-rendering:auto;text-rendering:auto;enable-background:accumulate"
         d="m 378.875,589.11523 a 5.0005,5.0005 0 0 0 -2.62695,9.36329 c 70.70408,40.82102 114.24805,116.24076 114.24804,197.88281 0,81.64205 -43.54395,157.06374 -114.24804,197.88476 a 5.0005,5.0005 0 1 0 5,8.66011 C 455.03226,960.30692 500.49609,881.56 500.49609,796.36133 500.4961,711.16266 455.03226,632.4177 381.24805,589.81836 a 5.0005,5.0005 0 0 0 -2.37305,-0.70313 z"
         id="path4142-8"
         inkscape:connector-curvature="0" />
      <path
         style="color:#000000;font-style:normal;font-variant:normal;font-weight:normal;font-stretch:normal;font-size:medium;line-height:normal;font-family:sans-serif;text-indent:0;text-align:start;text-decoration:none;text-decoration-line:none;text-decoration-style:solid;text-decoration-color:#000000;letter-spacing:normal;word-spacing:normal;text-transform:none;direction:ltr;block-progression:tb;writing-mode:lr-tb;baseline-shift:baseline;text-anchor:start;white-space:normal;clip-rule:nonzero;display:inline;overflow:visible;visibility:visible;opacity:1;isolation:auto;mix-blend-mode:normal;color-interpolation:sRGB;color-interpolation-filters:linearRGB;solid-color:#000000;solid-opacity:1;fill:#ffffff;fill-opacity:1;fill-rule:nonzero;stroke:none;stroke-width:10;stroke-linecap:round;stroke-linejoin:miter;stroke-miterlimit:4;stroke-dasharray:none;stroke-dashoffset:0;stroke-opacity:1;color-rendering:auto;image-rendering:auto;shape-rendering:auto;text-rendering:auto;enable-background:accumulate"
         d="m 199.17383,710.44336 a 5.0005,5.0005 0 0 1 2.62695,9.36328 c -27.35759,15.79492 -44.19922,44.96486 -44.19922,76.55469 0,31.58983 16.84162,60.76172 44.19922,76.55664 a 5.0005,5.0005 0 1 1 -5,8.66015 c -30.43772,-17.57322 -49.19922,-50.07034 -49.19922,-85.21679 0,-35.14646 18.7615,-67.64162 49.19922,-85.21485 a 5.0005,5.0005 0 0 1 2.37305,-0.70312 z"
         id="path4142-3"
         inkscape:connector-curvature="0" />
      <path
         style="color:#000000;font-style:normal;font-variant:normal;font-weight:normal;font-stretch:normal;font-size:medium;line-height:normal;font-family:sans-serif;text-indent:0;text-align:start;text-decoration:none;text-decoration-line:none;text-decoration-style:solid;text-decoration-color:#000000;letter-spacing:normal;word-spacing:normal;text-transform:none;direction:ltr;block-progression:tb;writing-mode:lr-tb;baseline-shift:baseline;text-anchor:start;white-space:normal;clip-rule:nonzero;display:inline;overflow:visible;visibility:visible;opacity:1;isolation:auto;mix-blend-mode:normal;color-interpolation:sRGB;color-interpolation-filters:linearRGB;solid-color:#000000;solid-opacity:1;fill:#ffffff;fill-opacity:1;fill-rule:nonzero;stroke:none;stroke-width:10;stroke-linecap:round;stroke-linejoin:miter;stroke-miterlimit:4;stroke-dasharray:none;stroke-dashoffset:0;stroke-opacity:1;color-rendering:auto;image-rendering:auto;shape-rendering:auto;text-rendering:auto;enable-background:accumulate"
         d="m 163.14062,629.55859 a 5.0005,5.0005 0 0 1 2.62696,9.36329 c -56.25526,32.47898 -90.898442,92.48147 -90.898439,157.43945 3e-6,64.95797 34.643179,124.96242 90.898439,157.4414 a 5.0005,5.0005 0 1 1 -5,8.66016 c -59.33539,-34.2573 -95.898436,-97.58696 -95.898439,-166.10156 -4e-6,-68.5146 36.563059,-131.84231 95.898439,-166.09961 a 5.0005,5.0005 0 0 1 2.37304,-0.70313 z"
         id="path4142-5-3"
         inkscape:connector-curvature="0" />
      <path
         style="color:#000000;font-style:normal;font-variant:normal;font-weight:normal;font-stretch:normal;font-size:medium;line-height:normal;font-family:sans-serif;text-indent:0;text-align:start;text-decoration:none;text-decoration-line:none;text-decoration-style:solid;text-decoration-color:#000000;letter-spacing:normal;word-spacing:normal;text-transform:none;direction:ltr;block-progression:tb;writing-mode:lr-tb;baseline-shift:baseline;text-anchor:start;white-space:normal;clip-rule:nonzero;display:inline;overflow:visible;visibility:visible;opacity:1;isolation:auto;mix-blend-mode:normal;color-interpolation:sRGB;color-interpolation-filters:linearRGB;solid-color:#000000;solid-opacity:1;fill:#ffffff;fill-opacity:1;fill-rule:nonzero;stroke:none;stroke-width:10;stroke-linecap:round;stroke-linejoin:miter;stroke-miterlimit:4;stroke-dasharray:none;stroke-dashoffset:0;stroke-opacity:1;color-rendering:auto;image-rendering:auto;shape-rendering:auto;text-rendering:auto;enable-background:accumulate"
         d="m 181.15625,670.00195 a 5.0005,5.0005 0 0 1 2.62891,9.36133 c -41.80643,24.13695 -67.55079,68.72415 -67.55078,116.99805 0,48.2739 25.74435,92.86305 67.55078,117 a 5.0005,5.0005 0 1 1 -5,8.66015 c -44.88656,-25.91526 -72.55078,-73.82963 -72.55078,-125.66015 -1e-5,-51.83053 27.66423,-99.74294 72.55078,-125.65821 a 5.0005,5.0005 0 0 1 2.37109,-0.70117 z"
         id="path4142-5-7-3"
         inkscape:connector-curvature="0" />
      <path
         style="color:#000000;font-style:normal;font-variant:normal;font-weight:normal;font-stretch:normal;font-size:medium;line-height:normal;font-family:sans-serif;text-indent:0;text-align:start;text-decoration:none;text-decoration-line:none;text-decoration-style:solid;text-decoration-color:#000000;letter-spacing:normal;word-spacing:normal;text-transform:none;direction:ltr;block-progression:tb;writing-mode:lr-tb;baseline-shift:baseline;text-anchor:start;white-space:normal;clip-rule:nonzero;display:inline;overflow:visible;visibility:visible;opacity:1;isolation:auto;mix-blend-mode:normal;color-interpolation:sRGB;color-interpolation-filters:linearRGB;solid-color:#000000;solid-opacity:1;fill:#ffffff;fill-opacity:1;fill-rule:nonzero;stroke:none;stroke-width:10;stroke-linecap:round;stroke-linejoin:miter;stroke-miterlimit:4;stroke-dasharray:none;stroke-dashoffset:0;stroke-opacity:1;color-rendering:auto;image-rendering:auto;shape-rendering:auto;text-rendering:auto;enable-background:accumulate"
         d="m 145.125,589.11523 a 5.0005,5.0005 0 0 1 2.62695,9.36329 C 77.047868,639.29954 33.503902,714.71928 33.503906,796.36133 c 4e-6,81.64205 43.543958,157.06374 114.248044,197.88476 a 5.0005,5.0005 0 1 1 -5,8.66011 C 68.967737,960.30692 23.50391,881.56 23.503906,796.36133 23.503902,711.16266 68.967741,632.4177 142.75195,589.81836 a 5.0005,5.0005 0 0 1 2.37305,-0.70313 z"
         id="path4142-8-3"
         inkscape:connector-curvature="0" />
    </g>
  </g>
</svg>
