<?xml version="1.0" encoding="UTF-8" standalone="no"?>
<!-- Created with Inkscape (http://www.inkscape.org/) -->

<svg
   xmlns:dc="http://purl.org/dc/elements/1.1/"
   xmlns:cc="http://creativecommons.org/ns#"
   xmlns:rdf="http://www.w3.org/1999/02/22-rdf-syntax-ns#"
   xmlns:svg="http://www.w3.org/2000/svg"
   xmlns="http://www.w3.org/2000/svg"
   xmlns:xlink="http://www.w3.org/1999/xlink"
   xmlns:sodipodi="http://sodipodi.sourceforge.net/DTD/sodipodi-0.dtd"
   xmlns:inkscape="http://www.inkscape.org/namespaces/inkscape"
   version="1.0"
   width="96"
   height="96"
   id="svg2408"
   style="enable-background:new"
   inkscape:version="0.91 r13725"
   sodipodi:docname="icon.svg"
   inkscape:export-filename="/home/konrad/dev/Temppler/src/main/res/mipmap-mdpi/ic_launcher.png"
   inkscape:export-xdpi="45"
   inkscape:export-ydpi="45">
  <sodipodi:namedview
     pagecolor="#ffffff"
     bordercolor="#666666"
     borderopacity="1"
     objecttolerance="10"
     gridtolerance="10"
     guidetolerance="10"
     inkscape:pageopacity="0"
     inkscape:pageshadow="2"
     inkscape:window-width="1366"
     inkscape:window-height="738"
     id="namedview4285"
     showgrid="false"
     inkscape:zoom="3.2291667"
     inkscape:cx="28.340878"
     inkscape:cy="52.21437"
     inkscape:window-x="0"
     inkscape:window-y="30"
     inkscape:window-maximized="1"
     inkscape:current-layer="layer1" />
  <defs
     id="defs2410">
    <linearGradient
       inkscape:collect="always"
       id="linearGradient5132">
      <stop
         style="stop-color:#0088ff;stop-opacity:1;"
         offset="0"
         id="stop5134" />
      <stop
         style="stop-color:#0088ff;stop-opacity:0;"
         offset="1"
         id="stop5136" />
    </linearGradient>
    <linearGradient
       inkscape:collect="always"
       id="linearGradient5124">
      <stop
         style="stop-color:#71bdff;stop-opacity:1;"
         offset="0"
         id="stop5126" />
      <stop
         style="stop-color:#71bdff;stop-opacity:0;"
         offset="1"
         id="stop5128" />
    </linearGradient>
    <linearGradient
       id="linearGradient4120">
      <stop
         id="stop4122"
         style="stop-color:#0088ff;stop-opacity:1"
         offset="0" />
      <stop
         id="stop4130"
         style="stop-color:#0088ff;stop-opacity:1"
         offset="0.40000001" />
      <stop
         id="stop4124"
         style="stop-color:#4dadff;stop-opacity:0.20392157"
         offset="0.80000001" />
      <stop
         id="stop4126"
         style="stop-color:#4dadff;stop-opacity:0"
         offset="1" />
    </linearGradient>
    <linearGradient
       id="linearGradient3920">
      <stop
         id="stop3922"
         style="stop-color:#4b4b4b;stop-opacity:1"
         offset="0" />
      <stop
         id="stop3924"
         style="stop-color:#141414;stop-opacity:1"
         offset="1" />
    </linearGradient>
    <linearGradient
       id="linearGradient4119">
      <stop
         id="stop4121"
         style="stop-color:#349cf4;stop-opacity:0.60000002"
         offset="0" />
      <stop
         id="stop3954"
         style="stop-color:#359cf3;stop-opacity:0.21176471"
         offset="0.5" />
      <stop
         id="stop4123"
         style="stop-color:#369cf2;stop-opacity:0"
         offset="1" />
    </linearGradient>
    <linearGradient
       id="linearGradient4055">
      <stop
         id="stop4057"
         style="stop-color:#93cdff;stop-opacity:1"
         offset="0" />
      <stop
         id="stop4059"
         style="stop-color:#93cdff;stop-opacity:0"
         offset="1" />
    </linearGradient>
    <linearGradient
       id="linearGradient4367">
      <stop
         id="stop4369"
         style="stop-color:#ffffff;stop-opacity:0.71755725"
         offset="0" />
      <stop
         id="stop4371"
         style="stop-color:#ffffff;stop-opacity:1"
         offset="1" />
    </linearGradient>
    <linearGradient
       x1="45.447727"
       y1="92.539597"
       x2="45.447727"
       y2="7.0165396"
       id="ButtonShadow"
       gradientUnits="userSpaceOnUse"
       gradientTransform="scale(1.0058652,0.994169)">
      <stop
         id="stop3750"
         style="stop-color:#000000;stop-opacity:1"
         offset="0" />
      <stop
         id="stop3752"
         style="stop-color:#000000;stop-opacity:0.58823532"
         offset="1" />
    </linearGradient>
    <linearGradient
       id="linearGradient3737">
      <stop
         id="stop3739"
         style="stop-color:#ffffff;stop-opacity:1"
         offset="0" />
      <stop
         id="stop3741"
         style="stop-color:#ffffff;stop-opacity:0"
         offset="1" />
    </linearGradient>
    <filter
       color-interpolation-filters="sRGB"
       id="filter3174">
      <feGaussianBlur
         id="feGaussianBlur3176"
         stdDeviation="1.71" />
    </filter>
    <filter
       x="-0.192"
       y="-0.192"
       width="1.3839999"
       height="1.3839999"
       color-interpolation-filters="sRGB"
       id="filter3794">
      <feGaussianBlur
         id="feGaussianBlur3796"
         stdDeviation="5.28" />
    </filter>
    <linearGradient
       x1="48"
       y1="20.220806"
       x2="48"
       y2="138.66119"
       id="linearGradient3613"
       xlink:href="#linearGradient3737"
       gradientUnits="userSpaceOnUse" />
    <linearGradient
       x1="45.447727"
       y1="92.539597"
       x2="45.447727"
       y2="7.0165396"
       id="ButtonShadow-0"
       gradientUnits="userSpaceOnUse"
       gradientTransform="matrix(1.0058652,0,0,0.994169,100,0)">
      <stop
         id="stop3750-8"
         style="stop-color:#000000;stop-opacity:1"
         offset="0" />
      <stop
         id="stop3752-5"
         style="stop-color:#000000;stop-opacity:0.58823532"
         offset="1" />
    </linearGradient>
    <linearGradient
       x1="32.251034"
       y1="6.1317081"
       x2="32.251034"
       y2="90.238609"
       id="linearGradient3780"
       xlink:href="#ButtonShadow-0"
       gradientUnits="userSpaceOnUse"
       gradientTransform="matrix(1.0238095,0,0,1.0119048,-1.1428571,-98.071429)" />
    <linearGradient
       x1="32.251034"
       y1="6.1317081"
       x2="32.251034"
       y2="90.238609"
       id="linearGradient3772"
       xlink:href="#ButtonShadow-0"
       gradientUnits="userSpaceOnUse"
       gradientTransform="matrix(1.0238095,0,0,1.0119048,-1.1428571,-98.071429)" />
    <linearGradient
       x1="32.251034"
       y1="6.1317081"
       x2="32.251034"
       y2="90.238609"
       id="linearGradient3725"
       xlink:href="#ButtonShadow-0"
       gradientUnits="userSpaceOnUse"
       gradientTransform="matrix(1.0238095,0,0,1.0119048,-1.1428571,-98.071429)" />
    <linearGradient
       x1="32.251034"
       y1="6.1317081"
       x2="32.251034"
       y2="90.238609"
       id="linearGradient3721"
       xlink:href="#ButtonShadow-0"
       gradientUnits="userSpaceOnUse"
       gradientTransform="translate(0,-97)" />
    <linearGradient
       x1="32.251034"
       y1="6.1317081"
       x2="32.251034"
       y2="90.238609"
       id="linearGradient3026"
       xlink:href="#ButtonShadow-0"
       gradientUnits="userSpaceOnUse"
       gradientTransform="matrix(1.0238095,0,0,1.0119048,-1.1428571,-98.071429)" />
    <clipPath
       id="clipPath4355">
      <rect
         width="84"
         height="80"
         rx="6"
         ry="6"
         x="6"
         y="6"
         id="rect4357"
         style="fill:#ffffff;fill-opacity:1;fill-rule:nonzero;stroke:none" />
    </clipPath>
    <radialGradient
       cx="48"
       cy="87.792389"
       r="42"
       fx="48"
       fy="87.792389"
       id="radialGradient4375"
       xlink:href="#linearGradient4367"
       gradientUnits="userSpaceOnUse"
       gradientTransform="matrix(1,-6.7114942e-8,8.4282233e-8,1.2557894,109.99999,-24.505592)" />
    <linearGradient
       x1="48"
       y1="88"
       x2="48"
       y2="-40"
       id="linearGradient4390"
       xlink:href="#linearGradient4055"
       gradientUnits="userSpaceOnUse"
       gradientTransform="matrix(1,0,0,-1,0,92)" />
    <linearGradient
       x1="48"
       y1="82"
       x2="112.12357"
       y2="82.454597"
       id="linearGradient4429"
       xlink:href="#linearGradient4055"
       gradientUnits="userSpaceOnUse"
       spreadMethod="reflect" />
    <linearGradient
       id="linearGradient3892">
      <stop
         id="stop3894"
         style="stop-color:#000000;stop-opacity:0.58823532"
         offset="0" />
      <stop
         id="stop3896"
         style="stop-color:#000000;stop-opacity:0.47058824"
         offset="0.11780351" />
      <stop
         id="stop3898"
         style="stop-color:#000000;stop-opacity:0.39215687"
         offset="0.23809524" />
      <stop
         id="stop3900"
         style="stop-color:#000000;stop-opacity:0.3137255"
         offset="1" />
    </linearGradient>
    <linearGradient
       x1="90"
       y1="88"
       x2="48"
       y2="88"
       id="linearGradient3228"
       xlink:href="#linearGradient3892"
       gradientUnits="userSpaceOnUse"
       spreadMethod="reflect" />
    <radialGradient
       cx="48"
       cy="3.0000064"
       r="36"
       fx="48"
       fy="3.0000064"
       id="radialGradient4089"
       xlink:href="#linearGradient4119"
       gradientUnits="userSpaceOnUse"
       gradientTransform="matrix(-1.0277778,0,0,-0.22222219,97.333337,6.666668)" />
    <radialGradient
       cx="65.099998"
       cy="-12.000001"
       r="36"
       fx="65.099998"
       fy="-12.000001"
       id="radialGradient4095"
       xlink:href="#linearGradient4119"
       gradientUnits="userSpaceOnUse"
       gradientTransform="matrix(0,0.55555556,-0.16666666,0,87,19.833333)" />
    <radialGradient
       cx="63.299999"
       cy="-12.000003"
       r="36"
       fx="63.299999"
       fy="-12.000003"
       id="radialGradient4099"
       xlink:href="#linearGradient4119"
       gradientUnits="userSpaceOnUse"
       gradientTransform="matrix(0,0.55555556,0.16666666,0,9,19.833333)" />
    <radialGradient
       cx="48.5"
       cy="46.5"
       r="30.5"
       fx="48.5"
       fy="46.5"
       id="radialGradient4125"
       xlink:href="#linearGradient4119"
       gradientUnits="userSpaceOnUse"
       gradientTransform="matrix(1.557377,-3.7704918e-8,3.056083e-8,1.2622951,-27.032788,-12.196719)" />
    <radialGradient
       cx="-26.75"
       cy="48"
       r="42"
       fx="-26.75"
       fy="48"
       id="radialGradient3940"
       xlink:href="#linearGradient3920"
       gradientUnits="userSpaceOnUse"
       gradientTransform="matrix(1.7142857,-1.2662338e-8,1.5476191e-8,2.0952381,21.857142,-52.571429)" />
    <linearGradient
       id="linearGradient4195-0">
      <stop
         id="stop4197-1"
         style="stop-color:#4dadff;stop-opacity:1"
         offset="0" />
      <stop
         id="stop4079"
         style="stop-color:#4dadff;stop-opacity:0.6156863"
         offset="0.80000001" />
      <stop
         id="stop4199-6"
         style="stop-color:#4dadff;stop-opacity:0"
         offset="1" />
    </linearGradient>
    <filter
       x="-0.092481703"
       y="-0.17083162"
       width="1.1849633"
       height="1.3416632"
       color-interpolation-filters="sRGB"
       id="filter4232-3">
      <feGaussianBlur
         id="feGaussianBlur4234-1"
         stdDeviation="2.6203151" />
    </filter>
    <linearGradient
       x1="72"
       y1="50"
       x2="8"
       y2="50"
       id="linearGradient4009"
       xlink:href="#linearGradient4195-0"
       gradientUnits="userSpaceOnUse"
       spreadMethod="repeat" />
    <linearGradient
       x1="74"
       y1="85.375"
       x2="90"
       y2="85.375"
       id="linearGradient4097"
       xlink:href="#linearGradient4195-0"
       gradientUnits="userSpaceOnUse"
       gradientTransform="translate(0,-30)" />
    <linearGradient
       x1="74"
       y1="50"
       x2="5.8760438"
       y2="50"
       id="linearGradient4099"
       xlink:href="#linearGradient4195-0"
       gradientUnits="userSpaceOnUse"
       spreadMethod="repeat" />
    <linearGradient
       x1="74"
       y1="50"
       x2="5.8760438"
       y2="50"
       id="linearGradient4117"
       xlink:href="#linearGradient4195-0"
       gradientUnits="userSpaceOnUse"
       spreadMethod="repeat" />
    <radialGradient
       cx="74"
       cy="55"
       r="2"
       fx="74"
       fy="55"
       id="radialGradient4128"
       xlink:href="#linearGradient4120"
       gradientUnits="userSpaceOnUse" />
    <radialGradient
       cx="48.5"
       cy="31.5"
       r="3.5"
       fx="48.5"
       fy="31.5"
       id="radialGradient4149"
       xlink:href="#linearGradient4119"
       gradientUnits="userSpaceOnUse" />
    <radialGradient
       cx="48.5"
       cy="31.5"
       r="3.5"
       fx="48.5"
       fy="31.5"
       id="radialGradient4153"
       xlink:href="#linearGradient4119"
       gradientUnits="userSpaceOnUse"
       gradientTransform="translate(0,8)" />
    <radialGradient
       cx="48.5"
       cy="31.5"
       r="3.5"
       fx="48.5"
       fy="31.5"
       id="radialGradient4157"
       xlink:href="#linearGradient4119"
       gradientUnits="userSpaceOnUse"
       gradientTransform="translate(0,16)" />
    <radialGradient
       cx="48.5"
       cy="31.5"
       r="3.5"
       fx="48.5"
       fy="31.5"
       id="radialGradient4161"
       xlink:href="#linearGradient4119"
       gradientUnits="userSpaceOnUse"
       gradientTransform="translate(0,32)" />
    <radialGradient
       cx="48.5"
       cy="31.5"
       r="3.5"
       fx="48.5"
       fy="31.5"
       id="radialGradient4165"
       xlink:href="#linearGradient4119"
       gradientUnits="userSpaceOnUse"
       gradientTransform="translate(0,40)" />
    <radialGradient
       cx="48.5"
       cy="31.5"
       r="3.5"
       fx="48.5"
       fy="31.5"
       id="radialGradient4169"
       xlink:href="#linearGradient4119"
       gradientUnits="userSpaceOnUse"
       gradientTransform="translate(0,-8)" />
    <linearGradient
       id="linearGradient3901">
      <stop
         id="stop3903"
         style="stop-color:#ffffff;stop-opacity:1"
         offset="0" />
      <stop
         id="stop3905"
         style="stop-color:#ffffff;stop-opacity:0"
         offset="1" />
    </linearGradient>
    <linearGradient
       x1="65"
       y1="6"
       x2="65"
       y2="86"
       id="linearGradient3123"
       xlink:href="#linearGradient3901"
       gradientUnits="userSpaceOnUse" />
    <linearGradient
       x1="74"
       y1="50"
       x2="5.8760438"
       y2="50"
       id="linearGradient4117-6"
       xlink:href="#linearGradient4195-0"
       gradientUnits="userSpaceOnUse"
       spreadMethod="repeat" />
    <linearGradient
       x1="72"
       y1="50"
       x2="8"
       y2="50"
       id="linearGradient4009-6"
       xlink:href="#linearGradient4195-0"
       gradientUnits="userSpaceOnUse"
       spreadMethod="repeat" />
    <filter
       style="color-interpolation-filters:sRGB"
       x="-0.092481703"
       y="-0.17083162"
       width="1.1849633"
       height="1.3416632"
       id="filter4232-3-5">
      <feGaussianBlur
         id="feGaussianBlur4234-1-4"
         stdDeviation="2.6203151" />
    </filter>
    <linearGradient
       x1="74"
       y1="50"
       x2="5.8760438"
       y2="50"
       id="linearGradient4099-3"
       xlink:href="#linearGradient4195-0"
       gradientUnits="userSpaceOnUse"
       spreadMethod="repeat" />
    <linearGradient
       x1="74"
       y1="85.375"
       x2="90"
       y2="85.375"
       id="linearGradient4387"
       xlink:href="#linearGradient4195-0"
       gradientUnits="userSpaceOnUse"
       gradientTransform="translate(0,-30)" />
    <radialGradient
       cx="74"
       cy="55"
       r="2"
       fx="74"
       fy="55"
       id="radialGradient4128-1"
       xlink:href="#linearGradient4120"
       gradientUnits="userSpaceOnUse" />
    <radialGradient
       cx="65.099998"
       cy="-12.000001"
       r="36"
       fx="65.099998"
       fy="-12.000001"
       id="radialGradient4095-6"
       xlink:href="#linearGradient4119"
       gradientUnits="userSpaceOnUse"
       gradientTransform="matrix(0,0.55555556,-0.16666666,0,87,19.833333)" />
    <radialGradient
       cx="63.299999"
       cy="-12.000003"
       r="36"
       fx="63.299999"
       fy="-12.000003"
       id="radialGradient4099-8"
       xlink:href="#linearGradient4119"
       gradientUnits="userSpaceOnUse"
       gradientTransform="matrix(0,0.55555556,0.16666666,0,9,19.833333)" />
    <radialGradient
       cx="48"
       cy="3.0000064"
       r="36"
       fx="48"
       fy="3.0000064"
       id="radialGradient4089-8"
       xlink:href="#linearGradient4119"
       gradientUnits="userSpaceOnUse"
       gradientTransform="matrix(-1.0277778,0,0,-0.22222219,97.333337,6.666668)" />
    <radialGradient
       cx="48.5"
       cy="46.5"
       r="30.5"
       fx="48.5"
       fy="46.5"
       id="radialGradient4125-3"
       xlink:href="#linearGradient4119"
       gradientUnits="userSpaceOnUse"
       gradientTransform="matrix(1.557377,-3.7704918e-8,3.056083e-8,1.2622951,-27.032788,-12.196719)" />
    <radialGradient
       cx="48.5"
       cy="31.5"
       r="3.5"
       fx="48.5"
       fy="31.5"
       id="radialGradient4149-4"
       xlink:href="#linearGradient4119"
       gradientUnits="userSpaceOnUse" />
    <radialGradient
       cx="48.5"
       cy="31.5"
       r="3.5"
       fx="48.5"
       fy="31.5"
       id="radialGradient4153-5"
       xlink:href="#linearGradient4119"
       gradientUnits="userSpaceOnUse"
       gradientTransform="translate(0,8)" />
    <radialGradient
       cx="48.5"
       cy="31.5"
       r="3.5"
       fx="48.5"
       fy="31.5"
       id="radialGradient4157-8"
       xlink:href="#linearGradient4119"
       gradientUnits="userSpaceOnUse"
       gradientTransform="translate(0,16)" />
    <radialGradient
       cx="48.5"
       cy="31.5"
       r="3.5"
       fx="48.5"
       fy="31.5"
       id="radialGradient4161-0"
       xlink:href="#linearGradient4119"
       gradientUnits="userSpaceOnUse"
       gradientTransform="translate(0,32)" />
    <radialGradient
       cx="48.5"
       cy="31.5"
       r="3.5"
       fx="48.5"
       fy="31.5"
       id="radialGradient4165-0"
       xlink:href="#linearGradient4119"
       gradientUnits="userSpaceOnUse"
       gradientTransform="translate(0,40)" />
    <radialGradient
       cx="48.5"
       cy="31.5"
       r="3.5"
       fx="48.5"
       fy="31.5"
       id="radialGradient4169-0"
       xlink:href="#linearGradient4119"
       gradientUnits="userSpaceOnUse"
       gradientTransform="translate(0,-8)" />
    <linearGradient
       x1="32.251034"
       y1="6.1317081"
       x2="32.251034"
       y2="90.238609"
       id="linearGradient4935"
       xlink:href="#ButtonShadow-0"
       gradientUnits="userSpaceOnUse"
       gradientTransform="matrix(1.0238095,0,0,1.0119048,-1.1428571,-98.071429)" />
    <linearGradient
       x1="32.251034"
       y1="6.1317081"
       x2="32.251034"
       y2="90.238609"
       id="linearGradient4937"
       xlink:href="#ButtonShadow-0"
       gradientUnits="userSpaceOnUse"
       gradientTransform="matrix(1.0238095,0,0,1.0119048,-1.1428571,-98.071429)" />
    <linearGradient
       x1="32.251034"
       y1="6.1317081"
       x2="32.251034"
       y2="90.238609"
       id="linearGradient4939"
       xlink:href="#ButtonShadow-0"
       gradientUnits="userSpaceOnUse"
       gradientTransform="matrix(1.0238095,0,0,1.0119048,-1.1428571,-98.071429)" />
    <linearGradient
       x1="32.251034"
       y1="6.1317081"
       x2="32.251034"
       y2="90.238609"
       id="linearGradient4941"
       xlink:href="#ButtonShadow-0"
       gradientUnits="userSpaceOnUse"
       gradientTransform="translate(0,-97)" />
    <radialGradient
       cx="-26.75"
       cy="48"
       r="42"
       fx="-26.75"
       fy="48"
       id="radialGradient3940-2"
       xlink:href="#linearGradient3920"
       gradientUnits="userSpaceOnUse"
       gradientTransform="matrix(1.7142857,-1.2662338e-8,1.5476191e-8,2.0952381,21.857142,-52.571429)" />
    <radialGradient
       cx="48"
       cy="87.792389"
       r="42"
       fx="48"
       fy="87.792389"
       id="radialGradient4375-2"
       xlink:href="#linearGradient4367"
       gradientUnits="userSpaceOnUse"
       gradientTransform="matrix(1,-6.7114942e-8,8.4282233e-8,1.2557894,109.99999,-24.505592)" />
    <linearGradient
       x1="48"
       y1="82"
       x2="112.12357"
       y2="82.454597"
       id="linearGradient4945"
       xlink:href="#linearGradient4055"
       gradientUnits="userSpaceOnUse"
       spreadMethod="reflect" />
    <linearGradient
       inkscape:collect="always"
       xlink:href="#ButtonShadow-0"
       id="linearGradient4964"
       gradientUnits="userSpaceOnUse"
       gradientTransform="matrix(1.0238095,0,0,1.0119048,-1.1428571,-98.071429)"
       x1="32.251034"
       y1="6.1317081"
       x2="32.251034"
       y2="90.238609" />
    <radialGradient
       gradientTransform="matrix(1.75,0,0,1.75,-50.121562,-70.759951)"
       cx="74"
       cy="55"
       r="2"
       fx="74"
       fy="55"
       id="radialGradient4128-1-6"
       xlink:href="#linearGradient4120"
       gradientUnits="userSpaceOnUse" />
    <linearGradient
       inkscape:collect="always"
       xlink:href="#linearGradient5124"
       id="linearGradient5130"
       x1="24.71237"
       y1="46.487827"
       x2="6.8638744"
       y2="46.487827"
       gradientUnits="userSpaceOnUse" />
    <linearGradient
       inkscape:collect="always"
       xlink:href="#linearGradient5132"
       id="linearGradient5138"
       x1="24.331739"
       y1="46.4879"
       x2="7.4361339"
       y2="46.4879"
       gradientUnits="userSpaceOnUse" />
  </defs>
  <metadata
     id="metadata2413">
    <rdf:RDF>
      <cc:Work
         rdf:about="">
        <dc:format>image/svg+xml</dc:format>
        <dc:type
           rdf:resource="http://purl.org/dc/dcmitype/StillImage" />
        <dc:title></dc:title>
      </cc:Work>
    </rdf:RDF>
  </metadata>
  <g
     inkscape:groupmode="layer"
     id="layer11"
     inkscape:label="Base">
    <g
       id="layer3"
       style="display:inline;enable-background:new">
      <path
         inkscape:connector-curvature="0"
         d="m 12,-95.03125 c -5.5110903,0 -10.03125,4.52016 -10.03125,10.03125 l 0,71 c 0,5.5110902 4.5201598,10.03125 10.03125,10.03125 l 72,0 c 5.51109,0 10.03125,-4.5201597 10.03125,-10.03125 l 0,-71 c 0,-5.51109 -4.52016,-10.03125 -10.03125,-10.03125 l -72,0 z"
         transform="scale(1,-1)"
         id="path3786"
         style="display:inline;opacity:0.07999998;fill:url(#linearGradient4964);fill-opacity:1;fill-rule:nonzero;stroke:none" />
      <path
         inkscape:connector-curvature="0"
         d="m 12,-94.03125 c -4.971633,0 -9.03125,4.059617 -9.03125,9.03125 l 0,71 c 0,4.9716329 4.0596171,9.03125 9.03125,9.03125 l 72,0 c 4.971633,0 9.03125,-4.059617 9.03125,-9.03125 l 0,-71 c 0,-4.971633 -4.059617,-9.03125 -9.03125,-9.03125 l -72,0 z"
         transform="scale(1,-1)"
         id="path3778"
         style="display:inline;opacity:0.1;fill:url(#linearGradient3780);fill-opacity:1;fill-rule:nonzero;stroke:none" />
      <path
         inkscape:connector-curvature="0"
         d="m 12,-93 c -4.4091333,0 -8,3.590867 -8,8 l 0,71 c 0,4.4091333 3.5908667,8 8,8 l 72,0 c 4.409133,0 8,-3.5908667 8,-8 l 0,-71 c 0,-4.409133 -3.590867,-8 -8,-8 l -72,0 z"
         transform="scale(1,-1)"
         id="path3770"
         style="display:inline;opacity:0.2;fill:url(#linearGradient3772);fill-opacity:1;fill-rule:nonzero;stroke:none" />
      <rect
         width="86"
         height="85"
         rx="7"
         ry="7"
         x="5"
         y="-92"
         transform="scale(1,-1)"
         id="rect3723"
         style="display:inline;opacity:0.3;fill:url(#linearGradient3725);fill-opacity:1;fill-rule:nonzero;stroke:none" />
      <rect
         width="84"
         height="84"
         rx="6"
         ry="6"
         x="6"
         y="-91"
         transform="scale(1,-1)"
         id="rect3716"
         style="display:inline;opacity:0.45;fill:url(#linearGradient3721);fill-opacity:1;fill-rule:nonzero;stroke:none" />
    </g>
    <g
       id="layer1"
       style="display:inline;enable-background:new">
      <rect
         width="84"
         height="84"
         rx="6"
         ry="6"
         x="-90"
         y="6"
         transform="matrix(0,-1,1,0,0,0)"
         id="rect2419"
         style="opacity:0.97000002;fill:url(#radialGradient3940-2);fill-opacity:1;fill-rule:nonzero;stroke:none" />
      <path
         d="M 120.78125,6.125 C 118.04223,6.6826484 116,9.0915 116,12 l 0,68 c 0,3.324 2.676,6 6,6 l 72,0 c 3.324,0 6,-2.676 6,-6 l 0,-68 c 0,-2.9085 -2.04223,-5.3173516 -4.78125,-5.875 2.20512,0.5362071 3.8125,2.4908437 3.8125,4.875 l 0,68 c 0,2.80489 -2.22636,5.03125 -5.03125,5.03125 l -72,0 c -2.80489,0 -5.03125,-2.22636 -5.03125,-5.03125 l 0,-68 c 0,-2.3841563 1.60738,-4.3387929 3.8125,-4.875 z"
         inkscape:connector-curvature="0"
         id="rect4359"
         style="opacity:0.2;fill:url(#radialGradient4375-2);fill-opacity:1;fill-rule:nonzero;stroke:none" />
      <path
         d="M 12,86 C 8.676,86 6,83.324 6,80 L 6,12 C 6,8.676 8.676,6 12,6 l 72,0 c 3.324,0 6,2.676 6,6 l 0,68 c 0,3.324 -2.676,6 -6,6 z m 0,-0.96875 72,0 c 2.80489,0 5.03125,-2.22636 5.03125,-5.03125 l 0,-68 C 89.03125,9.19511 86.80489,6.96875 84,6.96875 l -72,0 C 9.19511,6.96875 6.96875,9.19511 6.96875,12 l 0,68 c 0,2.80489 2.22636,5.03125 5.03125,5.03125 z"
         inkscape:connector-curvature="0"
         id="rect4377"
         style="opacity:0.2;fill:url(#linearGradient4390);fill-opacity:1;fill-rule:nonzero;stroke:none" />
      <path
         d="m 6,78 0,2 c 0,3.324 2.676,6 6,6 l 72,0 c 3.324,0 6,-2.676 6,-6 l 0,-2 c 0,3.324 -2.676,6 -6,6 L 12,84 C 8.676,84 6,81.324 6,78 Z"
         inkscape:connector-curvature="0"
         id="rect4414"
         style="opacity:0.05;fill:url(#linearGradient4429);fill-opacity:1;fill-rule:nonzero;stroke:none" />
      <path
         d="m 48,6 c 22.508432,38.354015 21.648743,57.88371 24,80 l 17.65625,0 C 89.876387,85.374238 90,84.702888 90,84 L 90,12 C 90,8.676 87.324,6 84,6 Z"
         inkscape:connector-curvature="0"
         id="rect3155"
         style="display:inline;opacity:0.1;fill:url(#linearGradient3123);fill-opacity:1;fill-rule:nonzero;stroke:none"
         sodipodi:nodetypes="cccsssc" />
    </g>
    <g
       id="layer4"
       style="display:inline;enable-background:new">
      <path
         d="m 6,80 0,4 c 0,3.324 2.676,6 6,6 l 72,0 c 3.324,0 6,-2.676 6,-6 l 0,-4 c 0,3.324 -2.676,6 -6,6 L 12,86 C 8.676,86 6,83.324 6,80 Z"
         inkscape:connector-curvature="0"
         id="path3888"
         style="display:inline;fill:url(#linearGradient3228);fill-opacity:1;fill-rule:nonzero;stroke:none" />
      <path
         d="m 6,82 0,2 c 0,3.324 2.676,6 6,6 l 72,0 c 3.324,0 6,-2.676 6,-6 l 0,-2 c 0,3.324 -2.676,6 -6,6 L 12,88 C 8.676,88 6,85.324 6,82 Z"
         inkscape:connector-curvature="0"
         id="rect4345"
         style="color:#000000;display:inline;overflow:visible;visibility:visible;opacity:0.1;fill:#000000;fill-opacity:1;fill-rule:nonzero;stroke:none;stroke-width:1.5;marker:none;enable-background:accumulate" />
      <path
         d="m 6,83 0,1 c 0,3.324 2.676,6 6,6 l 72,0 c 3.324,0 6,-2.676 6,-6 l 0,-1 c 0,3.324 -2.676,6 -6,6 L 12,89 C 8.676,89 6,86.324 6,83 Z"
         inkscape:connector-curvature="0"
         id="rect4336"
         style="color:#000000;display:inline;overflow:visible;visibility:visible;opacity:0.15;fill:#000000;fill-opacity:1;fill-rule:nonzero;stroke:none;stroke-width:1.5;marker:none;enable-background:accumulate" />
    </g>
  </g>
  <g
     inkscape:groupmode="layer"
     id="layer13"
     inkscape:label="Pulse2">
    <path
       style="display:inline;opacity:0.25;fill:none;fill-rule:evenodd;stroke:url(#linearGradient5130);stroke-width:3;stroke-linecap:round;stroke-linejoin:miter;stroke-miterlimit:4;stroke-dasharray:none;stroke-opacity:1;enable-background:new"
       d="M 7.3433298,48.185165 C 17.277995,47.310532 26.269456,33.109223 30.909344,32.47555 c 5.690247,-0.77712 7.467847,10.475482 8.711484,14.400044 1.243637,3.924563 4.978943,16.953128 6.811987,17.003131 4.060992,0.110768 7.139486,-35.667802 9.824981,-35.667802 2.685496,0 5.10899,38.270881 7.335985,38.270881 2.226998,0 4.126493,-40.320119 5.96049,-40.320119 1.833998,0 3.733493,41.815511 5.108991,41.815511 1.375496,0 3.995492,-42.978591 4.846991,-42.978591"
       id="path5006-3"
       inkscape:connector-curvature="0"
       sodipodi:nodetypes="csssssssc" />
    <path
       style="display:inline;fill:none;fill-rule:evenodd;stroke:url(#linearGradient5138);stroke-width:1;stroke-linecap:butt;stroke-linejoin:miter;stroke-miterlimit:4;stroke-dasharray:none;stroke-opacity:1;enable-background:new"
       d="M 7.3433298,48.185165 C 17.277995,47.310532 26.269456,33.109223 30.909344,32.47555 c 5.690247,-0.77712 7.467847,10.475482 8.711484,14.400044 1.243637,3.924563 4.978943,16.953128 6.811987,17.003131 4.060992,0.110768 7.139486,-35.667802 9.824981,-35.667802 2.685496,0 5.10899,38.270881 7.335985,38.270881 2.226998,0 4.126493,-40.320119 5.96049,-40.320119 1.833998,0 3.733493,41.815511 5.108991,41.815511 1.375496,0 3.995492,-42.978591 4.846991,-42.978591"
       id="path5006"
       inkscape:connector-curvature="0"
       sodipodi:nodetypes="csssssssc" />
    <path
       inkscape:connector-curvature="0"
       d="m 82.878438,25.490049 a 3.5,3.5 0 0 1 -7,0 3.5,3.5 0 1 1 7,0 z"
       id="path4185"
       style="color:#000000;display:inline;overflow:visible;visibility:visible;fill:url(#radialGradient4128-1-6);fill-opacity:1;fill-rule:nonzero;stroke:none;stroke-width:4;marker:none;enable-background:accumulate" />
  </g>
  <g
     id="layer2"
     style="display:none">
    <rect
       width="86"
       height="85"
       rx="6"
       ry="6"
       x="5"
       y="7"
       id="rect3745"
       style="opacity:0.9;fill:url(#ButtonShadow);fill-opacity:1;fill-rule:nonzero;stroke:none;filter:url(#filter3174)" />
  </g>
  <g
     id="layer5"
     style="display:none">
    <rect
       width="66"
       height="62"
       rx="12"
       ry="12"
       x="15"
       y="15"
       clip-path="url(#clipPath4355)"
       id="rect3171"
       style="opacity:0.1;fill:url(#linearGradient3613);fill-opacity:1;fill-rule:nonzero;stroke:#ffffff;stroke-width:0.5;stroke-linecap:round;stroke-linejoin:miter;stroke-miterlimit:4;stroke-opacity:1;stroke-dasharray:none;stroke-dashoffset:0;filter:url(#filter3794)" />
  </g>
  <g
     inkscape:groupmode="layer"
     id="layer7"
     inkscape:label="Pulse"
     style="display:inline"
     sodipodi:insensitive="true" />
  <g
     inkscape:groupmode="layer"
     id="layer10"
     inkscape:label="Grid"
     sodipodi:insensitive="true"
     style="display:inline">
    <g
       style="enable-background:new"
       id="layer6">
      <path
         d="m 90,15 c 0,-1.662 -1.338,-3 -3,-3 l -9,0 0,68 9,0 c 1.662,0 3,-1.338 3,-3 z"
         inkscape:connector-curvature="0"
         id="path4093"
         style="color:#000000;display:inline;overflow:visible;visibility:visible;opacity:0.2;fill:url(#radialGradient4095-6);fill-opacity:1;fill-rule:nonzero;stroke:none;stroke-width:1.5;marker:none;enable-background:accumulate" />
      <path
         d="m 6,15 c 0,-1.662 1.338,-3 3,-3 l 9,0 0,68 -9,0 C 7.338,80 6,78.662 6,77 Z"
         inkscape:connector-curvature="0"
         id="path4097"
         style="color:#000000;display:inline;overflow:visible;visibility:visible;opacity:0.35;fill:url(#radialGradient4099-8);fill-opacity:1;fill-rule:nonzero;stroke:none;stroke-width:1.5;marker:none;enable-background:accumulate" />
      <path
         d="M 9,6 C 7.338,6 5.8164628,7.3481652 6,9 l 0,9 84,0 0,-9 C 90,7.338 88.662,6 87,6 Z"
         inkscape:connector-curvature="0"
         id="rect4076"
         style="color:#000000;display:inline;overflow:visible;visibility:visible;opacity:0.6;fill:url(#radialGradient4089-8);fill-opacity:1;fill-rule:nonzero;stroke:none;stroke-width:1.5;marker:none;enable-background:accumulate" />
      <path
         d="m 16,8 0,15 -9,0 0,1 9,0 0,7 -9,0 0,1 9,0 0,7 -9,0 0,1 9,0 0,7 -9,0 0,1 9,0 0,7 -9,0 0,1 9,0 0,7 -9,0 0,1 9,0 0,7 -9,0 0,1 9,0 0,12 1,0 0,-12 7,0 0,12 1,0 0,-12 7,0 0,12 1,0 0,-12 7,0 0,12 1,0 0,-12 7,0 0,12 1,0 0,-12 7,0 0,12 1,0 0,-12 7,0 0,12 1,0 0,-12 7,0 0,12 1,0 0,-12 7,0 0,12 1,0 0,-12 8,0 0,-1 -8,0 0,-7 8,0 0,-1 -8,0 0,-7 8,0 0,-1 -8,0 0,-7 8,0 0,-1 -8,0 0,-7 8,0 0,-1 -8,0 0,-7 8,0 0,-1 -8,0 0,-7 8,0 0,-1 -8,0 0,-15 -1,0 0,15 -7,0 0,-15 -1,0 0,15 -7,0 0,-15 -1,0 0,15 -7,0 0,-15 -1,0 0,15 -7,0 0,-15 -1,0 0,15 -7,0 0,-15 -1,0 0,15 -7,0 0,-15 -1,0 0,15 -7,0 0,-15 -1,0 0,15 -7,0 0,-15 -1,0 z m 1,16 7,0 0,7 -7,0 0,-7 z m 8,0 7,0 0,7 -7,0 0,-7 z m 8,0 7,0 0,7 -7,0 0,-7 z m 8,0 7,0 0,7 -7,0 0,-7 z m 8,0 7,0 0,7 -7,0 0,-7 z m 8,0 7,0 0,7 -7,0 0,-7 z m 8,0 7,0 0,7 -7,0 0,-7 z m 8,0 7,0 0,7 -7,0 0,-7 z m -56,8 7,0 0,7 -7,0 0,-7 z m 8,0 7,0 0,7 -7,0 0,-7 z m 8,0 7,0 0,7 -7,0 0,-7 z m 8,0 7,0 0,7 -7,0 0,-7 z m 8,0 7,0 0,7 -7,0 0,-7 z m 8,0 7,0 0,7 -7,0 0,-7 z m 8,0 7,0 0,7 -7,0 0,-7 z m 8,0 7,0 0,7 -7,0 0,-7 z m -56,8 7,0 0,7 -7,0 0,-7 z m 8,0 7,0 0,7 -7,0 0,-7 z m 8,0 7,0 0,7 -7,0 0,-7 z m 8,0 7,0 0,7 -7,0 0,-7 z m 8,0 7,0 0,7 -7,0 0,-7 z m 8,0 7,0 0,7 -7,0 0,-7 z m 8,0 7,0 0,7 -7,0 0,-7 z m 8,0 7,0 0,7 -7,0 0,-7 z m -56,8 7,0 0,7 -7,0 0,-7 z m 8,0 7,0 0,7 -7,0 0,-7 z m 8,0 7,0 0,7 -7,0 0,-7 z m 8,0 7,0 0,7 -7,0 0,-7 z m 8,0 7,0 0,7 -7,0 0,-7 z m 8,0 7,0 0,7 -7,0 0,-7 z m 8,0 7,0 0,7 -7,0 0,-7 z m 8,0 7,0 0,7 -7,0 0,-7 z m -56,8 7,0 0,7 -7,0 0,-7 z m 8,0 7,0 0,7 -7,0 0,-7 z m 8,0 7,0 0,7 -7,0 0,-7 z m 8,0 7,0 0,7 -7,0 0,-7 z m 8,0 7,0 0,7 -7,0 0,-7 z m 8,0 7,0 0,7 -7,0 0,-7 z m 8,0 7,0 0,7 -7,0 0,-7 z m 8,0 7,0 0,7 -7,0 0,-7 z m -56,8 7,0 0,7 -7,0 0,-7 z m 8,0 7,0 0,7 -7,0 0,-7 z m 8,0 7,0 0,7 -7,0 0,-7 z m 8,0 7,0 0,7 -7,0 0,-7 z m 8,0 7,0 0,7 -7,0 0,-7 z m 8,0 7,0 0,7 -7,0 0,-7 z m 8,0 7,0 0,7 -7,0 0,-7 z m 8,0 7,0 0,7 -7,0 0,-7 z"
         inkscape:connector-curvature="0"
         id="rect4101"
         style="color:#000000;display:inline;overflow:visible;visibility:visible;opacity:0.3;fill:url(#radialGradient4125-3);fill-opacity:1;fill-rule:nonzero;stroke:none;stroke-width:4;marker:none;enable-background:accumulate" />
      <path
         d="m 48,28 0,3 -3,0 0,1 3,0 0,3 1,0 0,-3 3,0 0,-1 -3,0 0,-3 z"
         inkscape:connector-curvature="0"
         id="rect4138"
         style="color:#000000;display:inline;overflow:visible;visibility:visible;opacity:0.3;fill:url(#radialGradient4149-4);fill-opacity:1;fill-rule:nonzero;stroke:none;stroke-width:1.5;marker:none;enable-background:accumulate" />
      <path
         d="m 48,36 0,3 -3,0 0,1 3,0 0,3 1,0 0,-3 3,0 0,-1 -3,0 0,-3 z"
         inkscape:connector-curvature="0"
         id="path4151"
         style="color:#000000;display:inline;overflow:visible;visibility:visible;opacity:0.35;fill:url(#radialGradient4153-5);fill-opacity:1;fill-rule:nonzero;stroke:none;stroke-width:1.5;marker:none;enable-background:accumulate" />
      <path
         d="m 48,44 0,3 -3,0 0,1 3,0 0,3 1,0 0,-3 3,0 0,-1 -3,0 0,-3 z"
         inkscape:connector-curvature="0"
         id="path4155"
         style="color:#000000;display:inline;overflow:visible;visibility:visible;opacity:0.4;fill:url(#radialGradient4157-8);fill-opacity:1;fill-rule:nonzero;stroke:none;stroke-width:1.5;marker:none;enable-background:accumulate" />
      <path
         d="m 48,60 0,3 -3,0 0,1 3,0 0,3 1,0 0,-3 3,0 0,-1 -3,0 0,-3 z"
         inkscape:connector-curvature="0"
         id="path4159"
         style="color:#000000;display:inline;overflow:visible;visibility:visible;opacity:0.3;fill:url(#radialGradient4161-0);fill-opacity:1;fill-rule:nonzero;stroke:none;stroke-width:1.5;marker:none;enable-background:accumulate" />
      <path
         d="m 48,68 0,3 -3,0 0,1 3,0 0,3 1,0 0,-3 3,0 0,-1 -3,0 0,-3 z"
         inkscape:connector-curvature="0"
         id="path4163"
         style="color:#000000;display:inline;overflow:visible;visibility:visible;opacity:0.2;fill:url(#radialGradient4165-0);fill-opacity:1;fill-rule:nonzero;stroke:none;stroke-width:1.5;marker:none;enable-background:accumulate" />
      <path
         d="m 48,20 0,3 -3,0 0,1 3,0 0,3 1,0 0,-3 3,0 0,-1 -3,0 0,-3 z"
         inkscape:connector-curvature="0"
         id="path4167"
         style="color:#000000;display:inline;overflow:visible;visibility:visible;opacity:0.2;fill:url(#radialGradient4169-0);fill-opacity:1;fill-rule:nonzero;stroke:none;stroke-width:1.5;marker:none;enable-background:accumulate" />
    </g>
  </g>
</svg>
